<svg width="33" height="31" viewBox="0 0 33 31" fill="none" xmlns="http://www.w3.org/2000/svg">
<g clip-path="url(#clip0_6420_16293)">
<path fill-rule="evenodd" clip-rule="evenodd" d="M0.866577 14.625H4.614C5.09139 14.625 5.48092 15.0018 5.48058 15.4635V15.5472C5.48058 16.0083 5.09106 16.3848 4.614 16.3848H0.866914C0.389522 16.3854 2.18072e-07 16.0089 2.18072e-07 15.5469V15.4626C-0.000336447 15.0012 0.389186 14.6247 0.866577 14.625ZM31.7705 16.3848H28.023C27.5456 16.3848 27.1565 16.0079 27.1565 15.5462V15.4626C27.1565 15.0015 27.546 14.625 28.023 14.625H31.7705C32.2478 14.6243 32.6374 15.0008 32.6374 15.4626V15.5469C32.6377 16.0083 32.2482 16.3848 31.7708 16.3844L31.7705 16.3848ZM11.4069 19.4881H24.0578C25.0634 19.4949 25.9158 20.1304 26.1764 21.0708L28.0008 27.6524C28.184 28.3129 28.0503 28.9634 27.6197 29.5055C27.1891 30.048 26.5737 30.3411 25.8664 30.3411H6.77034C6.06335 30.3411 5.44759 30.0476 5.01699 29.5055C4.58639 28.9634 4.45274 28.3129 4.63588 27.6527L5.47957 24.6102C5.79267 25.3336 6.77001 26.1285 8.02139 26.1285H23.0717L22.3987 23.7004H8.61157C7.90423 23.7004 7.28881 23.4072 6.85821 22.8648C6.42796 22.3226 6.29396 21.6722 6.47711 21.0119L9.10411 11.5353C9.67509 9.47555 11.5446 8.08935 13.7508 8.08935H18.9583C21.1645 8.08935 23.0336 9.47555 23.605 11.535L25.2237 17.374C24.5887 17.0196 24.0598 17.06 23.2289 17.06H20.6295L19.5683 13.2336C19.4138 12.6749 18.9108 12.3023 18.3122 12.3023H14.3972C13.7989 12.3023 13.2959 12.6749 13.1411 13.2339L11.4072 19.4881H11.4069ZM17.2289 1.70045V5.32247C17.2289 5.78389 16.8393 6.16038 16.3616 6.16005H16.2751C15.798 6.16005 15.4085 5.78357 15.4085 5.32247V1.70078C15.4075 1.23904 15.797 0.86255 16.2747 0.86255H16.3623C16.8397 0.861899 17.2292 1.23871 17.2289 1.70045ZM27.8884 5.56652L25.2381 8.12742C24.9008 8.45412 24.3497 8.45379 24.012 8.12742L23.9507 8.0682C23.6137 7.74182 23.6134 7.20979 23.9507 6.88342L26.5999 4.3222C26.9373 3.9955 27.4881 3.99582 27.8264 4.3222L27.888 4.38174C28.226 4.70779 28.2257 5.24015 27.888 5.56652H27.8884ZM6.03608 4.3222L8.68563 6.88374C9.02331 7.20979 9.02297 7.74247 8.68563 8.06852L8.62436 8.12774C8.28669 8.45347 7.73624 8.45379 7.39856 8.12774L4.74867 5.56685C4.41099 5.24113 4.41099 4.70845 4.74867 4.38174L4.81028 4.3222C5.14762 3.9955 5.6984 3.9955 6.03608 4.3222Z" fill="#F56630"/>
</g>
<defs>
<clipPath id="clip0_6420_16293">
<rect width="32.6374" height="29.4789" fill="white" transform="translate(0 0.863281)"/>
</clipPath>
</defs>
</svg>
