<svg width="116" height="43" viewBox="0 0 116 43" fill="none" xmlns="http://www.w3.org/2000/svg">
<path d="M45.3066 16.9285C45.3066 22.0539 58.1044 17.9033 58.1044 26.6448C58.1044 30.9526 54.5827 33.4053 49.7403 33.4053C44.8664 33.4053 41.4076 31.1413 40.59 26.4875H45.0236C45.5582 28.7515 47.1933 30.0093 49.7717 30.0093C52.413 30.0093 53.7651 28.9087 53.7651 27.1793C53.7651 21.7395 40.9988 25.8272 40.9988 17.3058C40.9988 13.9099 43.7973 11.0799 48.8598 11.0799C53.1677 11.0799 56.8152 13.1552 57.507 17.9662H53.0105C52.5073 15.5764 51.0295 14.4759 48.734 14.4759C46.5958 14.4759 45.3066 15.4506 45.3066 16.9285ZM60.9388 14.1929V10.2938H64.9637V14.1929H60.9388ZM60.9388 32.9336V16.0795H64.9637V32.9336H60.9388ZM68.6463 32.9336V16.0795H72.6712V18.5322C73.7717 16.5197 75.4697 15.6079 77.2935 15.6079C77.9852 15.6079 78.6141 15.7965 78.9286 16.0795V19.5698C78.394 19.4126 77.7966 19.3497 77.0734 19.3497C74.0233 19.3497 72.6712 21.1735 72.6712 23.972V32.9336H68.6463ZM96.1212 27.4309C95.2093 31.3299 92.1906 33.4053 88.1658 33.4053C83.0718 33.4053 79.9588 30.0407 79.9588 24.538C79.9588 18.8152 83.1033 15.6079 88.0086 15.6079C92.9453 15.6079 95.9954 18.9409 95.9954 24.3808V25.3241H84.1095C84.2981 28.4056 85.7131 30.1036 88.1658 30.1036C90.0524 30.1036 91.3416 29.2232 91.8762 27.4309H96.1212ZM88.0086 18.9095C85.8704 18.9095 84.5811 20.2616 84.2038 22.8086H91.7819C91.4045 20.293 90.1153 18.9095 88.0086 18.9095ZM99.0157 32.9336V16.0795H103.041V18.3435C104.141 16.5197 105.902 15.6079 108.04 15.6079C111.405 15.6079 113.7 17.6203 113.7 21.708V32.9336H109.675V22.5256C109.675 20.2301 108.701 18.9409 106.657 18.9409C104.424 18.9409 103.041 20.8905 103.041 23.1545V32.9336H99.0157Z" fill="url(#paint0_linear_6441_20543)"/>
<g clip-path="url(#clip0_6441_20543)">
<path fill-rule="evenodd" clip-rule="evenodd" d="M0.866577 18.625H4.614C5.09139 18.625 5.48092 19.0018 5.48058 19.4635V19.5472C5.48058 20.0083 5.09106 20.3848 4.614 20.3848H0.866914C0.389522 20.3854 2.18072e-07 20.0089 2.18072e-07 19.5469V19.4626C-0.000336447 19.0012 0.389186 18.6247 0.866577 18.625ZM31.7705 20.3848H28.023C27.5456 20.3848 27.1565 20.0079 27.1565 19.5462V19.4626C27.1565 19.0015 27.546 18.625 28.023 18.625H31.7705C32.2478 18.6243 32.6374 19.0008 32.6374 19.4626V19.5469C32.6377 20.0083 32.2482 20.3848 31.7708 20.3844L31.7705 20.3848ZM11.4069 23.4881H24.0578C25.0634 23.4949 25.9158 24.1304 26.1764 25.0708L28.0008 31.6524C28.184 32.3129 28.0503 32.9634 27.6197 33.5055C27.1891 34.048 26.5737 34.3411 25.8664 34.3411H6.77034C6.06335 34.3411 5.44759 34.0476 5.01699 33.5055C4.58639 32.9634 4.45274 32.3129 4.63588 31.6527L5.47957 28.6102C5.79267 29.3336 6.77001 30.1285 8.02139 30.1285H23.0717L22.3987 27.7004H8.61157C7.90423 27.7004 7.28881 27.4072 6.85821 26.8648C6.42796 26.3226 6.29396 25.6722 6.47711 25.0119L9.10411 15.5353C9.67509 13.4755 11.5446 12.0893 13.7508 12.0893H18.9583C21.1645 12.0893 23.0336 13.4755 23.605 15.535L25.2237 21.374C24.5887 21.0196 24.0598 21.06 23.2289 21.06H20.6295L19.5683 17.2336C19.4138 16.6749 18.9108 16.3023 18.3122 16.3023H14.3972C13.7989 16.3023 13.2959 16.6749 13.1411 17.2339L11.4072 23.4881H11.4069ZM17.2289 5.70045V9.32247C17.2289 9.78389 16.8393 10.1604 16.3616 10.1601H16.2751C15.798 10.1601 15.4085 9.78357 15.4085 9.32247V5.70078C15.4075 5.23904 15.797 4.86255 16.2747 4.86255H16.3623C16.8397 4.8619 17.2292 5.23871 17.2289 5.70045ZM27.8884 9.56652L25.2381 12.1274C24.9008 12.4541 24.3497 12.4538 24.012 12.1274L23.9507 12.0682C23.6137 11.7418 23.6134 11.2098 23.9507 10.8834L26.5999 8.3222C26.9373 7.9955 27.4881 7.99582 27.8264 8.3222L27.888 8.38174C28.226 8.70779 28.2257 9.24015 27.888 9.56652H27.8884ZM6.03608 8.3222L8.68563 10.8837C9.02331 11.2098 9.02297 11.7425 8.68563 12.0685L8.62436 12.1277C8.28669 12.4535 7.73624 12.4538 7.39856 12.1277L4.74867 9.56685C4.41099 9.24113 4.41099 8.70845 4.74867 8.38174L4.81028 8.3222C5.14762 7.9955 5.6984 7.9955 6.03608 8.3222Z" fill="#F56630"/>
</g>
<defs>
<linearGradient id="paint0_linear_6441_20543" x1="23.0645" y1="25" x2="315.999" y2="21.9263" gradientUnits="userSpaceOnUse">
<stop stop-color="white"/>
<stop offset="1" stop-color="white" stop-opacity="0"/>
</linearGradient>
<clipPath id="clip0_6441_20543">
<rect width="32.6374" height="29.4789" fill="white" transform="translate(0 4.86328)"/>
</clipPath>
</defs>
</svg>
